Coordinates
version=1
nRows=10
nColumns=22
inDegrees=yes

Units are S.I. units (second, meters, Newtons, ...)
If the header above contains a line with 'inDegrees', this indicates whether rotational values are in degrees (yes) or radians (no).

endheader
time	pelvis_tilt	pelvis_list	pelvis_rotation	pelvis_tx	pelvis_ty	pelvis_tz	hip_flexion_r	hip_adduction_r	hip_rotation_r	knee_angle_r	ankle_angle_r	subtalar_angle_r	hip_flexion_l	hip_adduction_l	hip_rotation_l	knee_angle_l	ankle_angle_l	subtalar_angle_l	lumbar_extension	lumbar_bending	lumbar_rotation
      0.01000000	     -3.95917432	     -2.39705035	     -1.31140724	     -1.18493674	      0.95942791	      0.39332469	      7.33514645	      3.22326903	     -3.27360756	    -12.57223436	     10.60322769	     -0.23500327	      5.93796697	     -1.89941325	     -6.15782244	    -13.06834212	     10.66566812	     -5.26889598	     -1.45253011	      0.88072190	     -0.10025258
      0.02000000	     -3.99630119	     -2.39913337	     -1.32962525	     -1.18494395	      0.95937168	      0.39330906	      7.36511336	      3.22490035	     -3.27591798	    -12.55070104	     10.60378425	     -0.22223646	      5.89778889	     -1.90039534	     -6.19312382	    -12.93642181	     10.66559866	     -5.27796352	     -1.39782343	      0.89119490	     -0.12334839
      0.03000000	     -4.04827706	     -2.37816271	     -1.37876044	     -1.18495747	      0.95930693	      0.39333180	      7.41811211	      3.20513437	     -3.24029943	    -12.53785237	     10.59254303	     -0.18950900	      5.83340137	     -1.87248981	     -6.19939021	    -12.74032869	     10.61337884	     -5.28684248	     -1.32669614	      0.87280843	     -0.08198986
      0.04000000	     -4.09866198	     -2.36286704	     -1.40897964	     -1.18495157	      0.95923655	      0.39332669	      7.46150210	      3.18924674	     -3.22300838	    -12.51622345	     10.59693658	     -0.16677256	      5.76576819	     -1.85244057	     -6.23005232	    -12.53842228	     10.58270668	     -5.29203140	     -1.25511139	      0.86278392	     -0.08753015
      0.05000000	     -4.15044626	     -2.34866708	     -1.43569538	     -1.18493783	      0.95916533	      0.39331227	      7.50413430	      3.17400394	     -3.21283358	    -12.49168131	     10.59721425	     -0.15027293	      5.69192304	     -1.83195396	     -6.25036316	    -12.32415126	     10.55340476	     -5.28786332	     -1.18359669	      0.85569794	     -0.10205996
      0.06000000	     -4.19980920	     -2.33332132	     -1.45388349	     -1.18491350	      0.95909538	      0.39328927	      7.54241532	      3.15605398	     -3.20514114	    -12.46788178	     10.59789196	     -0.13657160	      5.61467228	     -1.81003419	     -6.26572597	    -12.10685535	     10.52067020	     -5.27678395	     -1.11738889	      0.84640179	     -0.12297100
      0.07000000	     -4.24672335	     -2.31952526	     -1.46613517	     -1.18487897	      0.95902819	      0.39325854	      7.57668388	      3.13933023	     -3.20303536	    -12.44335037	     10.59957694	     -0.12583342	      5.53734504	     -1.78917202	     -6.27904179	    -11.89324940	     10.49102438	     -5.26173677	     -1.05643190	      0.83941605	     -0.15389707
      0.08000000	     -4.29063542	     -2.30807143	     -1.47375591	     -1.18483815	      0.95896218	      0.39322489	      7.60739478	      3.12480421	     -3.20436613	    -12.41950172	     10.60179601	     -0.11808737	      5.46487855	     -1.77071242	     -6.28964339	    -11.69323692	     10.46553957	     -5.24468446	     -1.00272308	      0.83557603	     -0.19257844
      0.09000000	     -4.33088240	     -2.29873019	     -1.47880246	     -1.18479426	      0.95889979	      0.39319709	      7.63521665	      3.11298019	     -3.20662190	    -12.39796101	     10.60439787	     -0.11270949	      5.39928567	     -1.75520796	     -6.29630080	    -11.51138882	     10.44254152	     -5.22653208	     -0.95767236	      0.83315413	     -0.23585654
      0.10000000	     -4.36728927	     -2.29222852	     -1.48139695	     -1.18474978	      0.95884439	      0.39317713	      7.66055114	      3.10448803	     -3.20855190	    -12.38012520	     10.60719919	     -0.10910790	      5.34214090	     -1.74333664	     -6.29980652	    -11.35025746	     10.42233813	     -5.20844994	     -0.92124267	      0.83289776	     -0.28157694
